<svg xmlns="http://www.w3.org/2000/svg" version="1.1" xmlns:xlink="http://www.w3.org/1999/xlink" xmlns:svgjs="http://svgjs.dev/svgjs" viewBox="0 0 9.71694127755469 8.067558154664104"><g transform="matrix(0.8448058919302376,0,0,0.8448058919302376,1.3800247634251956,5.896794255075937)"><g transform="matrix(1,0,0,1,0,0)" clip-path="url(#SvgjsClipPath101158)"><g clip-path="url(#SvgjsClipPath10115668a604db-9095-4b71-a1e6-ca5be1c02f07)"><path d=" M 1.5826763886233446 -5.224988293118195 L 1.5901781240246584 -5.497936050412155 C 1.5683548937662908 -5.498618026357728 1.370450720329531 -5.498618026357728 1.2032879241317218 -5.336229061778937 C 1.0599942860290024 -5.197709255295235 0.9876523761100384 -4.988237720627779 0.9876523761100384 -4.714607987388245 C 0.9876523761100384 -4.27858928956992 0.9951541115113524 -3.838531195766273 0.9951541115113524 -3.575760617967804 C 0.9951541115113524 -3.371797350553059 0.7665610205237631 -3.145879703659645 0.5516336782917141 -3.145879703659645 C 0.7665610205237631 -3.145879703659645 0.9951541115113524 -2.9199620567662308 0.9951541115113524 -2.7159987893514868 C 0.9951541115113524 -2.4532282115530166 0.9876523761100384 -2.013170117749369 0.9876523761100384 -1.5771514199310452 C 0.9876523761100384 -1.3035216866915116 1.0599942860290024 -1.094050152024054 1.2032879241317218 -0.9555303455403532 C 1.3704769501735914 -0.7931413809615622 1.568354893766291 -0.7931413809615622 1.5901781240246584 -0.7938233569071356 L 1.5826763886233446 -1.066771114201094 C 1.5512792652828804 -1.066771114201094 1.2606001334039973 -1.0817745850037213 1.2606001334039973 -1.577177649775105 C 1.2606001334039973 -2.0118323957022817 1.2619640852951455 -2.4492150454117536 1.2681018688053114 -2.7092052597398064 C 1.2721937244787553 -2.8791221895639723 1.2012157664509393 -3.0374192984693194 1.084545420069666 -3.145905933503705 C 1.2012157664509393 -3.2543925685380906 1.2721937244787553 -3.4127159072874984 1.2681018688053114 -3.5826066072676035 C 1.2619640852951455 -3.8425968215956576 1.2606001334039973 -4.279979471305129 1.2606001334039973 -4.714634217232305 C 1.2606001334039973 -5.209984822315567 1.5512792652828804 -5.224988293118195 1.5826763886233446 -5.224988293118195 Z" fill="#3682ae" transform="matrix(1,0,0,1,0,0)" fill-rule="nonzero"></path></g><g clip-path="url(#SvgjsClipPath10115668a604db-9095-4b71-a1e6-ca5be1c02f07)"><path d=" M 7.68326597991141 -3.1458534738155848 C 7.468338637679361 -3.1458534738155848 7.239745546691772 -3.3717711207089986 7.239745546691772 -3.5757343881237436 C 7.239745546691772 -3.8385049659222137 7.2472472820930856 -4.278563059725861 7.2472472820930856 -4.7145817575441855 C 7.2472472820930856 -4.988211490783718 7.174905372174122 -5.197683025451176 7.031611734071403 -5.3362028319348775 C 6.864422708029533 -5.498591796513669 6.666544764436834 -5.498591796513669 6.644721534178466 -5.497909820568094 L 6.65222326957978 -5.224962063274135 C 6.683620392920243 -5.224962063274135 6.974299524799127 -5.209958592471507 6.974299524799127 -4.714555527700124 C 6.974299524799127 -4.279900781772948 6.9729355729079785 -3.8425181320634767 6.9667977893978135 -3.5825279177354226 C 6.962705933724369 -3.412610987911257 7.033683891752184 -3.25431387900591 7.150354238133457 -3.145827243971524 C 7.033683891752184 -3.037340608937139 6.962705933724369 -2.879017270187731 6.9667977893978135 -2.7091265702076255 C 6.9729355729079785 -2.449136355879572 6.974299524799127 -2.0117537061701 6.974299524799127 -1.5770989602429242 C 6.974299524799127 -1.0816958954715412 6.683620392920243 -1.066692424668914 6.65222326957978 -1.066692424668914 L 6.644721534178466 -0.7937446673749555 C 6.666544764436834 -0.7930626914293804 6.8644489378735924 -0.7930626914293804 7.031611734071403 -0.9554516560081714 C 7.174905372174122 -1.093971462491874 7.2472472820930856 -1.3034429971593307 7.2472472820930856 -1.5770727303988634 C 7.2472472820930856 -2.013091428217188 7.239745546691772 -2.4531495220208357 7.239745546691772 -2.715920099819306 C 7.239745546691773 -2.9199095970781097 7.468338637679362 -3.1458534738155848 7.68326597991141 -3.1458534738155848 Z" fill="#3682ae" transform="matrix(1,0,0,1,0,0)" fill-rule="nonzero"></path></g><g clip-path="url(#SvgjsClipPath10115668a604db-9095-4b71-a1e6-ca5be1c02f07)"><path d=" M 1.788029837773297 -5.4980147399443355 L 6.446869820429828 -5.4980147399443355 L 6.446869820429828 -5.225066982650376 L 1.788029837773297 -5.225066982650376 Z" fill="#102036" transform="matrix(1,0,0,1,0,0)" fill-rule="nonzero"></path></g><g clip-path="url(#SvgjsClipPath10115668a604db-9095-4b71-a1e6-ca5be1c02f07)"><path d=" M 1.788029837773297 -0.7935610584665307 L 3.3850338933991573 -0.7935610584665307 L 3.304875489950154 -0.5229477572939585 L 2.9126344018688672 -0.5229477572939585 L 2.7760556038456454 -0.25 L 5.368010104375836 -0.25 L 5.231431306352614 -0.5229477572939585 L 4.8391902182713284 -0.5229477572939585 L 4.759031814822323 -0.7935610584665307 L 6.446869820429828 -0.7935610584665307 L 6.446869820429828 -1.0665088157604892 L 1.788029837773297 -1.0665088157604892 Z" fill="#102036" transform="matrix(1,0,0,1,0,0)" fill-rule="nonzero"></path></g></g><g><path d=" M 0.5565 1.0829999999999997 Q 0.429 1.0829999999999997 0.3375 1.041 Q 0.246 0.9989999999999999 0.18825 0.9254999999999999 Q 0.1305 0.8519999999999999 0.10350000000000001 0.7567499999999998 Q 0.0765 0.6614999999999998 0.0765 0.5564999999999999 L 0.0765 0.008999999999999897 L 0.369 0.008999999999999897 L 0.369 0.5564999999999999 Q 0.369 0.6089999999999998 0.3795 0.6569999999999998 Q 0.39 0.7049999999999998 0.41250000000000003 0.7424999999999998 Q 0.435 0.7799999999999998 0.47025 0.8017499999999999 Q 0.5055000000000001 0.8234999999999999 0.5565 0.8234999999999999 Q 0.609 0.8234999999999999 0.645 0.8017499999999999 Q 0.681 0.7799999999999998 0.70275 0.7417499999999999 Q 0.7245 0.7034999999999998 0.735 0.6554999999999999 Q 0.7455 0.6074999999999998 0.7455 0.5564999999999999 L 0.7455 0.008999999999999897 L 1.038 0.008999999999999897 L 1.038 0.5564999999999999 Q 1.038 0.6674999999999998 1.00875 0.7634999999999998 Q 0.9795 0.8594999999999998 0.921 0.9314999999999998 Q 0.8625 1.0034999999999998 0.77175 1.0432499999999998 Q 0.681 1.0829999999999997 0.5565 1.0829999999999997 M 1.855471435546875 0.3569999999999999 Q 1.855471435546875 0.3569999999999999 1.829971435546875 0.34199999999999986 Q 1.804471435546875 0.32699999999999985 1.762471435546875 0.3082499999999998 Q 1.7204714355468749 0.28949999999999987 1.670971435546875 0.27449999999999986 Q 1.6214714355468751 0.25949999999999984 1.573471435546875 0.25949999999999984 Q 1.535971435546875 0.25949999999999984 1.511971435546875 0.27149999999999985 Q 1.487971435546875 0.28349999999999986 1.487971435546875 0.31199999999999983 Q 1.487971435546875 0.33899999999999986 1.511971435546875 0.3554999999999998 Q 1.535971435546875 0.3719999999999998 1.5802214355468749 0.38549999999999984 Q 1.624471435546875 0.3989999999999998 1.685971435546875 0.41849999999999987 Q 1.784971435546875 0.4484999999999998 1.856971435546875 0.4874999999999998 Q 1.928971435546875 0.5264999999999999 1.967971435546875 0.5872499999999998 Q 2.006971435546875 0.6479999999999999 2.006971435546875 0.7484999999999998 Q 2.006971435546875 0.8444999999999998 1.972471435546875 0.9097499999999998 Q 1.9379714355468751 0.9749999999999999 1.8794714355468751 1.0139999999999998 Q 1.8209714355468751 1.053 1.748971435546875 1.07025 Q 1.676971435546875 1.0875 1.6019714355468748 1.0875 Q 1.525471435546875 1.0875 1.442221435546875 1.0717499999999998 Q 1.358971435546875 1.0559999999999998 1.2809714355468749 1.0282499999999999 Q 1.202971435546875 1.0005 1.138471435546875 0.9629999999999999 L 1.264471435546875 0.7064999999999999 Q 1.264471435546875 0.7064999999999999 1.294471435546875 0.7244999999999998 Q 1.324471435546875 0.7424999999999998 1.373971435546875 0.7649999999999999 Q 1.423471435546875 0.7874999999999999 1.484221435546875 0.8054999999999999 Q 1.5449714355468749 0.8234999999999999 1.606471435546875 0.8234999999999999 Q 1.654471435546875 0.8234999999999999 1.6732214355468749 0.8107499999999999 Q 1.6919714355468751 0.7979999999999998 1.6919714355468751 0.7769999999999999 Q 1.6919714355468751 0.7454999999999998 1.658971435546875 0.7282499999999998 Q 1.6259714355468748 0.7109999999999999 1.572721435546875 0.6952499999999998 Q 1.519471435546875 0.6794999999999998 1.454971435546875 0.6584999999999999 Q 1.361971435546875 0.6269999999999998 1.301971435546875 0.5872499999999998 Q 1.241971435546875 0.5474999999999999 1.213471435546875 0.4927499999999998 Q 1.184971435546875 0.43799999999999983 1.184971435546875 0.3599999999999999 Q 1.184971435546875 0.24149999999999983 1.240471435546875 0.1619999999999998 Q 1.295971435546875 0.0824999999999998 1.3867214355468749 0.04124999999999979 Q 1.477471435546875 -2.220446049250313e-16 1.582471435546875 -2.220446049250313e-16 Q 1.6604714355468748 -2.220446049250313e-16 1.733221435546875 0.018749999999999822 Q 1.805971435546875 0.03749999999999987 1.869721435546875 0.06449999999999978 Q 1.933471435546875 0.0914999999999998 1.981471435546875 0.11549999999999983 L 1.855471435546875 0.3569999999999999 M 2.8994780273437497 0.8189999999999998 L 2.8994780273437497 1.0739999999999998 L 2.14047802734375 1.0739999999999998 L 2.14047802734375 0.008999999999999897 L 2.88597802734375 0.008999999999999897 L 2.88597802734375 0.2639999999999998 L 2.43297802734375 0.2639999999999998 L 2.43297802734375 0.4139999999999998 L 2.81997802734375 0.4139999999999998 L 2.81997802734375 0.6509999999999998 L 2.43297802734375 0.6509999999999998 L 2.43297802734375 0.8189999999999998 L 2.8994780273437497 0.8189999999999998 M 3.0404553222656245 1.0739999999999998 L 3.0404553222656245 0.008999999999999897 L 3.5294553222656244 0.008999999999999897 Q 3.6074553222656247 0.008999999999999897 3.6734553222656245 0.04049999999999976 Q 3.7394553222656244 0.07199999999999984 3.7874553222656244 0.12524999999999986 Q 3.8354553222656245 0.17849999999999977 3.8617053222656246 0.24449999999999983 Q 3.8879553222656247 0.3104999999999998 3.8879553222656247 0.3779999999999998 Q 3.8879553222656247 0.4394999999999998 3.869955322265625 0.49649999999999983 Q 3.8519553222656246 0.5534999999999999 3.8174553222656247 0.6007499999999999 Q 3.7829553222656247 0.6479999999999999 3.7349553222656247 0.6824999999999999 L 3.9599553222656247 1.0739999999999998 L 3.6389553222656246 1.0739999999999998 L 3.4514553222656246 0.7469999999999999 L 3.3329553222656245 0.7469999999999999 L 3.3329553222656245 1.0739999999999998 L 3.0404553222656245 1.0739999999999998 M 3.3329553222656245 0.4919999999999999 L 3.517455322265625 0.4919999999999999 Q 3.5354553222656246 0.4919999999999999 3.5519553222656244 0.4784999999999998 Q 3.5684553222656246 0.46499999999999986 3.5797053222656245 0.4394999999999998 Q 3.5909553222656245 0.4139999999999998 3.5909553222656245 0.3779999999999998 Q 3.5909553222656245 0.3404999999999998 3.5782053222656245 0.31574999999999986 Q 3.565455322265625 0.2909999999999998 3.5467053222656246 0.27749999999999986 Q 3.5279553222656244 0.2639999999999998 3.5099553222656246 0.2639999999999998 L 3.3329553222656245 0.2639999999999998 L 3.3329553222656245 0.4919999999999999 M 4.70243701171875 0.3569999999999999 Q 4.70243701171875 0.3569999999999999 4.67693701171875 0.34199999999999986 Q 4.65143701171875 0.32699999999999985 4.60943701171875 0.3082499999999998 Q 4.5674370117187495 0.28949999999999987 4.51793701171875 0.27449999999999986 Q 4.46843701171875 0.25949999999999984 4.42043701171875 0.25949999999999984 Q 4.38293701171875 0.25949999999999984 4.35893701171875 0.27149999999999985 Q 4.33493701171875 0.28349999999999986 4.33493701171875 0.31199999999999983 Q 4.33493701171875 0.33899999999999986 4.35893701171875 0.3554999999999998 Q 4.38293701171875 0.3719999999999998 4.4271870117187495 0.38549999999999984 Q 4.47143701171875 0.3989999999999998 4.53293701171875 0.41849999999999987 Q 4.63193701171875 0.4484999999999998 4.70393701171875 0.4874999999999998 Q 4.775937011718749 0.5264999999999999 4.81493701171875 0.5872499999999998 Q 4.85393701171875 0.6479999999999999 4.85393701171875 0.7484999999999998 Q 4.85393701171875 0.8444999999999998 4.81943701171875 0.9097499999999998 Q 4.78493701171875 0.9749999999999999 4.72643701171875 1.0139999999999998 Q 4.66793701171875 1.053 4.59593701171875 1.07025 Q 4.52393701171875 1.0875 4.4489370117187494 1.0875 Q 4.37243701171875 1.0875 4.28918701171875 1.0717499999999998 Q 4.20593701171875 1.0559999999999998 4.12793701171875 1.0282499999999999 Q 4.049937011718749 1.0005 3.9854370117187496 0.9629999999999999 L 4.11143701171875 0.7064999999999999 Q 4.11143701171875 0.7064999999999999 4.14143701171875 0.7244999999999998 Q 4.17143701171875 0.7424999999999998 4.22093701171875 0.7649999999999999 Q 4.27043701171875 0.7874999999999999 4.331187011718749 0.8054999999999999 Q 4.39193701171875 0.8234999999999999 4.45343701171875 0.8234999999999999 Q 4.50143701171875 0.8234999999999999 4.5201870117187495 0.8107499999999999 Q 4.53893701171875 0.7979999999999998 4.53893701171875 0.7769999999999999 Q 4.53893701171875 0.7454999999999998 4.50593701171875 0.7282499999999998 Q 4.4729370117187495 0.7109999999999999 4.41968701171875 0.6952499999999998 Q 4.36643701171875 0.6794999999999998 4.30193701171875 0.6584999999999999 Q 4.20893701171875 0.6269999999999998 4.14893701171875 0.5872499999999998 Q 4.08893701171875 0.5474999999999999 4.06043701171875 0.4927499999999998 Q 4.03193701171875 0.43799999999999983 4.03193701171875 0.3599999999999999 Q 4.03193701171875 0.24149999999999983 4.08743701171875 0.1619999999999998 Q 4.142937011718749 0.0824999999999998 4.23368701171875 0.04124999999999979 Q 4.32443701171875 -2.220446049250313e-16 4.42943701171875 -2.220446049250313e-16 Q 4.50743701171875 -2.220446049250313e-16 4.58018701171875 0.018749999999999822 Q 4.65293701171875 0.03749999999999987 4.71668701171875 0.06449999999999978 Q 4.78043701171875 0.0914999999999998 4.82843701171875 0.11549999999999983 L 4.70243701171875 0.3569999999999999 M 4.928943603515625 0.5324999999999999 Q 4.928943603515625 0.43499999999999983 4.965693603515625 0.34124999999999983 Q 5.002443603515625 0.24749999999999983 5.072943603515625 0.17099999999999982 Q 5.143443603515625 0.0944999999999998 5.244693603515625 0.04874999999999985 Q 5.345943603515625 0.0029999999999998916 5.473443603515625 0.0029999999999998916 Q 5.626443603515625 0.0029999999999998916 5.740443603515625 0.06674999999999986 Q 5.854443603515625 0.13049999999999984 5.909943603515625 0.23549999999999982 L 5.686443603515625 0.39449999999999985 Q 5.666943603515625 0.34199999999999986 5.630193603515625 0.3134999999999998 Q 5.593443603515625 0.2849999999999998 5.550693603515625 0.2737499999999998 Q 5.507943603515625 0.26249999999999984 5.467443603515625 0.26249999999999984 Q 5.404443603515625 0.26249999999999984 5.358693603515625 0.2872499999999998 Q 5.312943603515625 0.31199999999999983 5.283693603515625 0.3524999999999998 Q 5.254443603515625 0.3929999999999998 5.240193603515625 0.4424999999999998 Q 5.225943603515625 0.4919999999999999 5.225943603515625 0.5414999999999999 Q 5.225943603515625 0.5969999999999998 5.242443603515625 0.6479999999999999 Q 5.258943603515625 0.6989999999999998 5.290443603515625 0.7387499999999998 Q 5.321943603515625 0.7784999999999999 5.367693603515625 0.8009999999999998 Q 5.413443603515625 0.8234999999999999 5.4704436035156245 0.8234999999999999 Q 5.510943603515625 0.8234999999999999 5.552943603515625 0.8107499999999999 Q 5.594943603515625 0.7979999999999998 5.629443603515625 0.7694999999999999 Q 5.663943603515625 0.7409999999999999 5.681943603515625 0.6929999999999998 L 5.920443603515625 0.8354999999999998 Q 5.888943603515625 0.9134999999999999 5.815443603515625 0.9689999999999999 Q 5.741943603515625 1.0244999999999997 5.648943603515625 1.0537499999999997 Q 5.555943603515625 1.0829999999999997 5.464443603515625 1.0829999999999997 Q 5.345943603515625 1.0829999999999997 5.247693603515625 1.03575 Q 5.149443603515625 0.9884999999999998 5.078193603515625 0.9097499999999998 Q 5.006943603515625 0.8309999999999998 4.967943603515625 0.7327499999999998 Q 4.928943603515625 0.6344999999999998 4.928943603515625 0.5324999999999999 M 6.028412109375 1.0739999999999998 L 6.028412109375 0.008999999999999897 L 6.517412109375 0.008999999999999897 Q 6.595412109375 0.008999999999999897 6.661412109375 0.04049999999999976 Q 6.727412109375 0.07199999999999984 6.775412109375 0.12524999999999986 Q 6.823412109375 0.17849999999999977 6.849662109375 0.24449999999999983 Q 6.875912109375 0.3104999999999998 6.875912109375 0.3779999999999998 Q 6.875912109375 0.4394999999999998 6.857912109375 0.49649999999999983 Q 6.839912109375 0.5534999999999999 6.805412109375 0.6007499999999999 Q 6.770912109375 0.6479999999999999 6.722912109375001 0.6824999999999999 L 6.947912109375 1.0739999999999998 L 6.6269121093750005 1.0739999999999998 L 6.4394121093750005 0.7469999999999999 L 6.3209121093750005 0.7469999999999999 L 6.3209121093750005 1.0739999999999998 L 6.028412109375 1.0739999999999998 M 6.3209121093750005 0.4919999999999999 L 6.505412109375 0.4919999999999999 Q 6.523412109375 0.4919999999999999 6.539912109375 0.4784999999999998 Q 6.5564121093750005 0.46499999999999986 6.567662109375 0.4394999999999998 Q 6.5789121093750005 0.4139999999999998 6.5789121093750005 0.3779999999999998 Q 6.5789121093750005 0.3404999999999998 6.566162109375 0.31574999999999986 Q 6.553412109375 0.2909999999999998 6.534662109375001 0.27749999999999986 Q 6.515912109375 0.2639999999999998 6.497912109375 0.2639999999999998 L 6.3209121093750005 0.2639999999999998 L 6.3209121093750005 0.4919999999999999 M 7.8508937988281255 1.0739999999999998 L 7.8508937988281255 0.5129999999999998 L 7.672393798828125 0.9074999999999999 L 7.516393798828125 0.9074999999999999 L 7.337893798828126 0.5129999999999998 L 7.337893798828126 1.0739999999999998 L 7.045393798828125 1.0739999999999998 L 7.045393798828125 0.008999999999999897 L 7.364893798828126 0.008999999999999897 L 7.594393798828126 0.5099999999999998 L 7.8253937988281255 0.008999999999999897 L 8.143393798828125 0.008999999999999897 L 8.143393798828125 1.0739999999999998 L 7.8508937988281255 1.0739999999999998" fill="#102036" fill-rule="nonzero"></path></g><g></g></g><defs><clipPath id="SvgjsClipPath101158"><path d=" M 0.5516336782917142 -5.498016535312538 h 7.131632301619696 v 5.248016535312538 h -7.131632301619696 Z"></path></clipPath><clipPath id="SvgjsClipPath10115668a604db-9095-4b71-a1e6-ca5be1c02f07"><path d=" M 0.5516336782917142 -5.498016535312538 L 7.68326597991141 -5.498016535312538 L 7.68326597991141 -0.25 L 0.5516336782917142 -0.25 Z"></path></clipPath></defs></svg>